<mxfile host="app.diagrams.net" modified="2023-10-06T12:06:07.375Z" agent="Mozilla/5.0 (Windows NT 6.1; Win64; x64; rv:109.0) Gecko/20100101 Firefox/115.0" etag="DHsW2BgryOPw0hyD1ty_" version="21.5.2" type="device">
  <diagram name="Страница 1" id="ZU4lFBc9HtkdHjiLw-rU">
    <mxGraphModel dx="1687" dy="865" grid="1" gridSize="10" guides="1" tooltips="1" connect="1" arrows="1" fold="1" page="1" pageScale="1" pageWidth="827" pageHeight="1169" background="none" math="0" shadow="0">
      <root>
        <mxCell id="0" />
        <mxCell id="1" parent="0" />
        <mxCell id="Y6A_3geRlV_-eWPfyYfj-1" value="&lt;div style=&quot;font-family: Consolas, &amp;quot;Courier New&amp;quot;, monospace; font-size: 14px; line-height: 19px;&quot;&gt;&lt;div style=&quot;font-size: 14px;&quot;&gt;Написать программу, которая из имеющегося массива строк формирует новый массив из строк, длина которых меньше, либо равна 3 символам.Ввод массива с клавиатуры.&lt;br&gt;&lt;/div&gt;&lt;div style=&quot;font-size: 14px;&quot;&gt;Выводить в формате [“1234”, “1567”, “-2”, “computer science”] → [“-2”]&lt;/div&gt;&lt;/div&gt;" style="text;strokeColor=#b85450;align=center;fillColor=none;html=1;verticalAlign=middle;whiteSpace=wrap;rounded=0;labelBackgroundColor=none;fontSize=14;fontStyle=1;fontColor=#000099;" vertex="1" parent="1">
          <mxGeometry x="69" width="690" height="60" as="geometry" />
        </mxCell>
        <mxCell id="Y6A_3geRlV_-eWPfyYfj-2" value="создаём текстовой &lt;b&gt;массив1 &lt;/b&gt;из одного элемента" style="rounded=0;whiteSpace=wrap;html=1;" vertex="1" parent="1">
          <mxGeometry x="60" y="80" width="200" height="30" as="geometry" />
        </mxCell>
        <mxCell id="Y6A_3geRlV_-eWPfyYfj-4" value="выводим приглашение ввести текст" style="rounded=0;whiteSpace=wrap;html=1;" vertex="1" parent="1">
          <mxGeometry x="60" y="170" width="200" height="30" as="geometry" />
        </mxCell>
        <mxCell id="Y6A_3geRlV_-eWPfyYfj-5" value="&lt;b&gt;i=0&lt;/b&gt;" style="rounded=1;whiteSpace=wrap;html=1;" vertex="1" parent="1">
          <mxGeometry x="145" y="130" width="30" height="20" as="geometry" />
        </mxCell>
        <mxCell id="Y6A_3geRlV_-eWPfyYfj-6" value="введено не пустое значение &lt;b&gt;text&lt;/b&gt;" style="rhombus;whiteSpace=wrap;html=1;" vertex="1" parent="1">
          <mxGeometry x="80" y="220" width="160" height="70" as="geometry" />
        </mxCell>
        <mxCell id="Y6A_3geRlV_-eWPfyYfj-7" value="" style="endArrow=classic;html=1;rounded=0;exitX=0.5;exitY=1;exitDx=0;exitDy=0;entryX=0.5;entryY=0;entryDx=0;entryDy=0;" edge="1" parent="1" source="Y6A_3geRlV_-eWPfyYfj-2" target="Y6A_3geRlV_-eWPfyYfj-5">
          <mxGeometry width="50" height="50" relative="1" as="geometry">
            <mxPoint x="410" y="330" as="sourcePoint" />
            <mxPoint x="460" y="280" as="targetPoint" />
          </mxGeometry>
        </mxCell>
        <mxCell id="Y6A_3geRlV_-eWPfyYfj-9" value="" style="endArrow=classic;html=1;rounded=0;exitX=0.5;exitY=1;exitDx=0;exitDy=0;entryX=0.5;entryY=0;entryDx=0;entryDy=0;" edge="1" parent="1" source="Y6A_3geRlV_-eWPfyYfj-5" target="Y6A_3geRlV_-eWPfyYfj-4">
          <mxGeometry width="50" height="50" relative="1" as="geometry">
            <mxPoint x="410" y="330" as="sourcePoint" />
            <mxPoint x="460" y="280" as="targetPoint" />
          </mxGeometry>
        </mxCell>
        <mxCell id="Y6A_3geRlV_-eWPfyYfj-10" value="" style="endArrow=classic;html=1;rounded=0;exitX=0.5;exitY=1;exitDx=0;exitDy=0;entryX=0.5;entryY=0;entryDx=0;entryDy=0;" edge="1" parent="1" source="Y6A_3geRlV_-eWPfyYfj-4" target="Y6A_3geRlV_-eWPfyYfj-6">
          <mxGeometry width="50" height="50" relative="1" as="geometry">
            <mxPoint x="410" y="360" as="sourcePoint" />
            <mxPoint x="460" y="310" as="targetPoint" />
          </mxGeometry>
        </mxCell>
        <mxCell id="Y6A_3geRlV_-eWPfyYfj-11" value="увеличиваем размер &lt;b&gt;массив1&lt;/b&gt; до &lt;b&gt;i+1&lt;/b&gt;" style="rounded=0;whiteSpace=wrap;html=1;" vertex="1" parent="1">
          <mxGeometry x="20" y="310" width="180" height="30" as="geometry" />
        </mxCell>
        <mxCell id="Y6A_3geRlV_-eWPfyYfj-103" style="edgeStyle=orthogonalEdgeStyle;rounded=0;orthogonalLoop=1;jettySize=auto;html=1;entryX=0.5;entryY=0;entryDx=0;entryDy=0;" edge="1" parent="1" source="Y6A_3geRlV_-eWPfyYfj-12" target="Y6A_3geRlV_-eWPfyYfj-31">
          <mxGeometry relative="1" as="geometry">
            <Array as="points">
              <mxPoint x="100" y="400" />
              <mxPoint x="100" y="400" />
            </Array>
          </mxGeometry>
        </mxCell>
        <mxCell id="Y6A_3geRlV_-eWPfyYfj-12" value="&lt;div&gt;присваиваем &lt;br&gt;&lt;/div&gt;&lt;div&gt;&lt;b&gt;массив1[ i ] = text&lt;/b&gt;&lt;/div&gt; " style="rounded=0;whiteSpace=wrap;html=1;" vertex="1" parent="1">
          <mxGeometry x="20" y="360" width="180" height="30" as="geometry" />
        </mxCell>
        <mxCell id="Y6A_3geRlV_-eWPfyYfj-13" value="" style="endArrow=classic;html=1;rounded=0;exitX=0;exitY=0.5;exitDx=0;exitDy=0;entryX=0.331;entryY=0.013;entryDx=0;entryDy=0;entryPerimeter=0;" edge="1" parent="1" source="Y6A_3geRlV_-eWPfyYfj-6" target="Y6A_3geRlV_-eWPfyYfj-11">
          <mxGeometry width="50" height="50" relative="1" as="geometry">
            <mxPoint x="110" y="350" as="sourcePoint" />
            <mxPoint x="160" y="300" as="targetPoint" />
          </mxGeometry>
        </mxCell>
        <mxCell id="Y6A_3geRlV_-eWPfyYfj-14" value="&lt;b&gt;j = j+1&lt;/b&gt;" style="rounded=0;whiteSpace=wrap;html=1;" vertex="1" parent="1">
          <mxGeometry x="315" y="590" width="120" height="20" as="geometry" />
        </mxCell>
        <mxCell id="Y6A_3geRlV_-eWPfyYfj-15" value="" style="endArrow=classic;html=1;rounded=0;exitX=0.413;exitY=0.941;exitDx=0;exitDy=0;entryX=0.002;entryY=0.432;entryDx=0;entryDy=0;entryPerimeter=0;exitPerimeter=0;" edge="1" parent="1" source="Y6A_3geRlV_-eWPfyYfj-31" target="Y6A_3geRlV_-eWPfyYfj-4">
          <mxGeometry width="50" height="50" relative="1" as="geometry">
            <mxPoint x="170.00000000000003" y="469.94000000000005" as="sourcePoint" />
            <mxPoint x="10" y="180" as="targetPoint" />
            <Array as="points">
              <mxPoint x="100" y="430" />
              <mxPoint x="100" y="450" />
              <mxPoint x="10" y="450" />
              <mxPoint x="10" y="183" />
            </Array>
          </mxGeometry>
        </mxCell>
        <mxCell id="Y6A_3geRlV_-eWPfyYfj-18" value="" style="endArrow=classic;html=1;rounded=0;exitX=0.441;exitY=0.999;exitDx=0;exitDy=0;exitPerimeter=0;entryX=0.441;entryY=0.013;entryDx=0;entryDy=0;entryPerimeter=0;" edge="1" parent="1" source="Y6A_3geRlV_-eWPfyYfj-11" target="Y6A_3geRlV_-eWPfyYfj-12">
          <mxGeometry width="50" height="50" relative="1" as="geometry">
            <mxPoint x="110" y="370" as="sourcePoint" />
            <mxPoint x="160" y="320" as="targetPoint" />
          </mxGeometry>
        </mxCell>
        <mxCell id="Y6A_3geRlV_-eWPfyYfj-20" value="создаём текстовой &lt;b&gt;массив2 &lt;/b&gt;из одного элемента" style="rounded=0;whiteSpace=wrap;html=1;" vertex="1" parent="1">
          <mxGeometry x="410" y="240" width="200" height="30" as="geometry" />
        </mxCell>
        <mxCell id="Y6A_3geRlV_-eWPfyYfj-21" value="" style="endArrow=classic;html=1;rounded=0;exitX=1;exitY=0.5;exitDx=0;exitDy=0;" edge="1" parent="1" source="Y6A_3geRlV_-eWPfyYfj-6" target="Y6A_3geRlV_-eWPfyYfj-20">
          <mxGeometry width="50" height="50" relative="1" as="geometry">
            <mxPoint x="170" y="240" as="sourcePoint" />
            <mxPoint x="220" y="190" as="targetPoint" />
          </mxGeometry>
        </mxCell>
        <mxCell id="Y6A_3geRlV_-eWPfyYfj-24" value="&lt;b&gt;i = 0, j = 0&lt;br&gt;&lt;/b&gt;" style="rounded=1;whiteSpace=wrap;html=1;" vertex="1" parent="1">
          <mxGeometry x="480" y="290" width="70" height="20" as="geometry" />
        </mxCell>
        <mxCell id="Y6A_3geRlV_-eWPfyYfj-25" value="&lt;div&gt;проверяем условие&lt;/div&gt;&lt;div&gt;длина элемента&lt;/div&gt;&lt;div&gt;&amp;nbsp;&lt;b&gt;массив1 [ i ] &amp;lt;= 3&lt;/b&gt;&lt;br&gt;&lt;/div&gt;" style="rhombus;whiteSpace=wrap;html=1;" vertex="1" parent="1">
          <mxGeometry x="275" y="390" width="190" height="80" as="geometry" />
        </mxCell>
        <mxCell id="Y6A_3geRlV_-eWPfyYfj-26" value="увеличиваем размер &lt;b&gt;массив2&lt;/b&gt; до &lt;b&gt;j+1&lt;/b&gt;" style="rounded=0;whiteSpace=wrap;html=1;" vertex="1" parent="1">
          <mxGeometry x="285" y="490" width="180" height="30" as="geometry" />
        </mxCell>
        <mxCell id="Y6A_3geRlV_-eWPfyYfj-27" value="&lt;div&gt;присваиваем &lt;b&gt;&lt;br&gt;&lt;/b&gt;&lt;/div&gt;&lt;div&gt;&lt;b&gt;массив2[j] =&lt;/b&gt;&lt;b&gt; массив1[i]&lt;/b&gt;&lt;/div&gt; " style="rounded=0;whiteSpace=wrap;html=1;" vertex="1" parent="1">
          <mxGeometry x="285" y="540" width="180" height="30" as="geometry" />
        </mxCell>
        <mxCell id="Y6A_3geRlV_-eWPfyYfj-49" style="edgeStyle=orthogonalEdgeStyle;rounded=0;orthogonalLoop=1;jettySize=auto;html=1;entryX=0.5;entryY=0;entryDx=0;entryDy=0;" edge="1" parent="1" source="Y6A_3geRlV_-eWPfyYfj-28" target="Y6A_3geRlV_-eWPfyYfj-48">
          <mxGeometry relative="1" as="geometry" />
        </mxCell>
        <mxCell id="Y6A_3geRlV_-eWPfyYfj-28" value="&lt;div&gt;проверяем условие&lt;/div&gt;&lt;div&gt;&lt;b&gt;i &amp;lt; длина&lt;/b&gt; &lt;b&gt;массив1&lt;/b&gt;&lt;br&gt;&lt;/div&gt;" style="rhombus;whiteSpace=wrap;html=1;" vertex="1" parent="1">
          <mxGeometry x="420" y="330" width="190" height="80" as="geometry" />
        </mxCell>
        <mxCell id="Y6A_3geRlV_-eWPfyYfj-29" value="Да" style="text;html=1;strokeColor=none;fillColor=none;align=center;verticalAlign=middle;whiteSpace=wrap;rounded=0;" vertex="1" parent="1">
          <mxGeometry x="40" y="230" width="60" height="30" as="geometry" />
        </mxCell>
        <mxCell id="Y6A_3geRlV_-eWPfyYfj-30" value="Нет" style="text;html=1;strokeColor=none;fillColor=none;align=center;verticalAlign=middle;whiteSpace=wrap;rounded=0;" vertex="1" parent="1">
          <mxGeometry x="220" y="230" width="60" height="30" as="geometry" />
        </mxCell>
        <mxCell id="Y6A_3geRlV_-eWPfyYfj-31" value="&lt;b&gt;i = i+1&lt;/b&gt;" style="rounded=0;whiteSpace=wrap;html=1;" vertex="1" parent="1">
          <mxGeometry x="40" y="410" width="120" height="20" as="geometry" />
        </mxCell>
        <mxCell id="Y6A_3geRlV_-eWPfyYfj-32" value="" style="endArrow=classic;html=1;rounded=0;exitX=0;exitY=0.5;exitDx=0;exitDy=0;entryX=0.5;entryY=0;entryDx=0;entryDy=0;" edge="1" parent="1" source="Y6A_3geRlV_-eWPfyYfj-28" target="Y6A_3geRlV_-eWPfyYfj-25">
          <mxGeometry width="50" height="50" relative="1" as="geometry">
            <mxPoint x="-140" y="320" as="sourcePoint" />
            <mxPoint x="370" y="370" as="targetPoint" />
            <Array as="points">
              <mxPoint x="370" y="370" />
            </Array>
          </mxGeometry>
        </mxCell>
        <mxCell id="Y6A_3geRlV_-eWPfyYfj-33" value="Да" style="text;html=1;strokeColor=none;fillColor=none;align=center;verticalAlign=middle;whiteSpace=wrap;rounded=0;" vertex="1" parent="1">
          <mxGeometry x="370" y="340" width="60" height="30" as="geometry" />
        </mxCell>
        <mxCell id="Y6A_3geRlV_-eWPfyYfj-34" value="" style="endArrow=classic;html=1;rounded=0;entryX=0.5;entryY=0;entryDx=0;entryDy=0;exitX=0.5;exitY=1;exitDx=0;exitDy=0;" edge="1" parent="1" source="Y6A_3geRlV_-eWPfyYfj-24" target="Y6A_3geRlV_-eWPfyYfj-28">
          <mxGeometry width="50" height="50" relative="1" as="geometry">
            <mxPoint x="520" y="320" as="sourcePoint" />
            <mxPoint x="-50" y="250" as="targetPoint" />
          </mxGeometry>
        </mxCell>
        <mxCell id="Y6A_3geRlV_-eWPfyYfj-35" value="" style="endArrow=classic;html=1;rounded=0;entryX=0.5;entryY=0;entryDx=0;entryDy=0;exitX=0.5;exitY=1;exitDx=0;exitDy=0;" edge="1" parent="1">
          <mxGeometry width="50" height="50" relative="1" as="geometry">
            <mxPoint x="514.91" y="270" as="sourcePoint" />
            <mxPoint x="514.91" y="290" as="targetPoint" />
          </mxGeometry>
        </mxCell>
        <mxCell id="Y6A_3geRlV_-eWPfyYfj-36" value="" style="endArrow=classic;html=1;rounded=0;entryX=0.5;entryY=0;entryDx=0;entryDy=0;exitX=0.5;exitY=1;exitDx=0;exitDy=0;" edge="1" parent="1">
          <mxGeometry width="50" height="50" relative="1" as="geometry">
            <mxPoint x="370" y="470" as="sourcePoint" />
            <mxPoint x="370" y="490" as="targetPoint" />
          </mxGeometry>
        </mxCell>
        <mxCell id="Y6A_3geRlV_-eWPfyYfj-37" value="Да" style="text;html=1;strokeColor=none;fillColor=none;align=center;verticalAlign=middle;whiteSpace=wrap;rounded=0;" vertex="1" parent="1">
          <mxGeometry x="360" y="460" width="60" height="30" as="geometry" />
        </mxCell>
        <mxCell id="Y6A_3geRlV_-eWPfyYfj-38" value="" style="endArrow=classic;html=1;rounded=0;entryX=0.5;entryY=0;entryDx=0;entryDy=0;exitX=0.5;exitY=1;exitDx=0;exitDy=0;" edge="1" parent="1">
          <mxGeometry width="50" height="50" relative="1" as="geometry">
            <mxPoint x="369.81" y="520" as="sourcePoint" />
            <mxPoint x="369.81" y="540" as="targetPoint" />
          </mxGeometry>
        </mxCell>
        <mxCell id="Y6A_3geRlV_-eWPfyYfj-39" value="" style="endArrow=classic;html=1;rounded=0;entryX=0.5;entryY=0;entryDx=0;entryDy=0;exitX=0.5;exitY=1;exitDx=0;exitDy=0;" edge="1" parent="1">
          <mxGeometry width="50" height="50" relative="1" as="geometry">
            <mxPoint x="369.81" y="570" as="sourcePoint" />
            <mxPoint x="369.81" y="590" as="targetPoint" />
          </mxGeometry>
        </mxCell>
        <mxCell id="Y6A_3geRlV_-eWPfyYfj-40" value="" style="endArrow=classic;html=1;rounded=0;exitX=1;exitY=0.5;exitDx=0;exitDy=0;entryX=0.5;entryY=0;entryDx=0;entryDy=0;" edge="1" parent="1" source="Y6A_3geRlV_-eWPfyYfj-25" target="Y6A_3geRlV_-eWPfyYfj-42">
          <mxGeometry width="50" height="50" relative="1" as="geometry">
            <mxPoint x="80" y="380" as="sourcePoint" />
            <mxPoint x="670" y="520" as="targetPoint" />
            <Array as="points">
              <mxPoint x="524" y="430" />
            </Array>
          </mxGeometry>
        </mxCell>
        <mxCell id="Y6A_3geRlV_-eWPfyYfj-42" value="&lt;b&gt;i = i+1&lt;/b&gt;" style="rounded=0;whiteSpace=wrap;html=1;" vertex="1" parent="1">
          <mxGeometry x="490" y="640" width="67.5" height="20" as="geometry" />
        </mxCell>
        <mxCell id="Y6A_3geRlV_-eWPfyYfj-43" value="Нет" style="text;html=1;strokeColor=none;fillColor=none;align=center;verticalAlign=middle;whiteSpace=wrap;rounded=0;" vertex="1" parent="1">
          <mxGeometry x="305" y="750" width="60" height="30" as="geometry" />
        </mxCell>
        <mxCell id="Y6A_3geRlV_-eWPfyYfj-46" value="" style="endArrow=classic;html=1;rounded=0;exitX=0.456;exitY=1.055;exitDx=0;exitDy=0;exitPerimeter=0;entryX=0;entryY=0.5;entryDx=0;entryDy=0;" edge="1" parent="1" source="Y6A_3geRlV_-eWPfyYfj-14" target="Y6A_3geRlV_-eWPfyYfj-42">
          <mxGeometry width="50" height="50" relative="1" as="geometry">
            <mxPoint x="379.81" y="580" as="sourcePoint" />
            <mxPoint x="370" y="640" as="targetPoint" />
            <Array as="points">
              <mxPoint x="370" y="650" />
            </Array>
          </mxGeometry>
        </mxCell>
        <mxCell id="Y6A_3geRlV_-eWPfyYfj-47" value="" style="endArrow=classic;html=1;rounded=0;exitX=0.5;exitY=1;exitDx=0;exitDy=0;entryX=0.489;entryY=-0.007;entryDx=0;entryDy=0;entryPerimeter=0;" edge="1" parent="1" source="Y6A_3geRlV_-eWPfyYfj-42" target="Y6A_3geRlV_-eWPfyYfj-28">
          <mxGeometry width="50" height="50" relative="1" as="geometry">
            <mxPoint x="310" y="520" as="sourcePoint" />
            <mxPoint x="360" y="470" as="targetPoint" />
            <Array as="points">
              <mxPoint x="524" y="670" />
              <mxPoint x="270" y="670" />
              <mxPoint x="270" y="330" />
            </Array>
          </mxGeometry>
        </mxCell>
        <mxCell id="Y6A_3geRlV_-eWPfyYfj-51" style="edgeStyle=orthogonalEdgeStyle;rounded=0;orthogonalLoop=1;jettySize=auto;html=1;" edge="1" parent="1" source="Y6A_3geRlV_-eWPfyYfj-48" target="Y6A_3geRlV_-eWPfyYfj-50">
          <mxGeometry relative="1" as="geometry" />
        </mxCell>
        <mxCell id="Y6A_3geRlV_-eWPfyYfj-48" value="печать&lt;b&gt; массив1&lt;/b&gt;" style="rounded=1;whiteSpace=wrap;html=1;" vertex="1" parent="1">
          <mxGeometry x="630" y="400" width="120" height="30" as="geometry" />
        </mxCell>
        <mxCell id="Y6A_3geRlV_-eWPfyYfj-53" value="" style="edgeStyle=orthogonalEdgeStyle;rounded=0;orthogonalLoop=1;jettySize=auto;html=1;" edge="1" parent="1" source="Y6A_3geRlV_-eWPfyYfj-50" target="Y6A_3geRlV_-eWPfyYfj-52">
          <mxGeometry relative="1" as="geometry" />
        </mxCell>
        <mxCell id="Y6A_3geRlV_-eWPfyYfj-50" value="печать&lt;b&gt; массив2&lt;/b&gt;" style="rounded=1;whiteSpace=wrap;html=1;" vertex="1" parent="1">
          <mxGeometry x="630" y="450" width="120" height="30" as="geometry" />
        </mxCell>
        <mxCell id="Y6A_3geRlV_-eWPfyYfj-52" value="конец задачи" style="ellipse;whiteSpace=wrap;html=1;" vertex="1" parent="1">
          <mxGeometry x="630" y="500" width="120" height="40" as="geometry" />
        </mxCell>
        <mxCell id="Y6A_3geRlV_-eWPfyYfj-54" value="Нет" style="text;html=1;strokeColor=none;fillColor=none;align=center;verticalAlign=middle;whiteSpace=wrap;rounded=0;" vertex="1" parent="1">
          <mxGeometry x="600" y="340" width="60" height="30" as="geometry" />
        </mxCell>
        <mxCell id="Y6A_3geRlV_-eWPfyYfj-55" value="&lt;font style=&quot;font-size: 14px;&quot; color=&quot;#0000ff&quot;&gt;функция печати&lt;b&gt; массива&lt;/b&gt;&lt;/font&gt;" style="rounded=1;whiteSpace=wrap;html=1;" vertex="1" parent="1">
          <mxGeometry x="345" y="690" width="205" height="30" as="geometry" />
        </mxCell>
        <mxCell id="Y6A_3geRlV_-eWPfyYfj-68" style="edgeStyle=orthogonalEdgeStyle;rounded=0;orthogonalLoop=1;jettySize=auto;html=1;entryX=0.5;entryY=0;entryDx=0;entryDy=0;" edge="1" parent="1" source="Y6A_3geRlV_-eWPfyYfj-56" target="Y6A_3geRlV_-eWPfyYfj-58">
          <mxGeometry relative="1" as="geometry">
            <Array as="points">
              <mxPoint x="210" y="940" />
            </Array>
          </mxGeometry>
        </mxCell>
        <mxCell id="Y6A_3geRlV_-eWPfyYfj-91" style="edgeStyle=orthogonalEdgeStyle;rounded=0;orthogonalLoop=1;jettySize=auto;html=1;entryX=0.514;entryY=0;entryDx=0;entryDy=0;entryPerimeter=0;" edge="1" parent="1" source="Y6A_3geRlV_-eWPfyYfj-56" target="Y6A_3geRlV_-eWPfyYfj-84">
          <mxGeometry relative="1" as="geometry">
            <mxPoint x="453" y="970" as="targetPoint" />
            <Array as="points">
              <mxPoint x="454" y="940" />
              <mxPoint x="454" y="970" />
            </Array>
          </mxGeometry>
        </mxCell>
        <mxCell id="Y6A_3geRlV_-eWPfyYfj-56" value="&lt;div&gt;проверяем условие&lt;/div&gt;&lt;div&gt;&lt;b&gt;i&amp;lt; длина&lt;/b&gt; &lt;b&gt;массив-1&lt;/b&gt;&lt;br&gt;&lt;/div&gt;" style="rhombus;whiteSpace=wrap;html=1;" vertex="1" parent="1">
          <mxGeometry x="240" y="900" width="190" height="80" as="geometry" />
        </mxCell>
        <mxCell id="Y6A_3geRlV_-eWPfyYfj-74" style="edgeStyle=orthogonalEdgeStyle;rounded=0;orthogonalLoop=1;jettySize=auto;html=1;" edge="1" parent="1" source="Y6A_3geRlV_-eWPfyYfj-57">
          <mxGeometry relative="1" as="geometry">
            <mxPoint x="335.00000000000006" y="900" as="targetPoint" />
          </mxGeometry>
        </mxCell>
        <mxCell id="Y6A_3geRlV_-eWPfyYfj-57" value="&lt;b&gt;i=0&lt;/b&gt;" style="rounded=1;whiteSpace=wrap;html=1;" vertex="1" parent="1">
          <mxGeometry x="320" y="860" width="30" height="20" as="geometry" />
        </mxCell>
        <mxCell id="Y6A_3geRlV_-eWPfyYfj-75" value="" style="edgeStyle=orthogonalEdgeStyle;rounded=0;orthogonalLoop=1;jettySize=auto;html=1;entryX=0.5;entryY=0;entryDx=0;entryDy=0;" edge="1" parent="1" source="Y6A_3geRlV_-eWPfyYfj-58" target="Y6A_3geRlV_-eWPfyYfj-61">
          <mxGeometry relative="1" as="geometry" />
        </mxCell>
        <mxCell id="Y6A_3geRlV_-eWPfyYfj-58" value="вывести символ&lt;b&gt; &quot;&lt;br&gt;&lt;/b&gt;" style="rounded=1;whiteSpace=wrap;html=1;" vertex="1" parent="1">
          <mxGeometry x="155" y="980" width="110" height="20" as="geometry" />
        </mxCell>
        <mxCell id="Y6A_3geRlV_-eWPfyYfj-60" value="вывести символ&lt;b&gt; [&lt;br&gt;&lt;/b&gt;" style="rounded=1;whiteSpace=wrap;html=1;" vertex="1" parent="1">
          <mxGeometry x="282.5" y="830" width="105" height="20" as="geometry" />
        </mxCell>
        <mxCell id="Y6A_3geRlV_-eWPfyYfj-93" style="edgeStyle=orthogonalEdgeStyle;rounded=0;orthogonalLoop=1;jettySize=auto;html=1;entryX=0.5;entryY=0;entryDx=0;entryDy=0;" edge="1" parent="1" source="Y6A_3geRlV_-eWPfyYfj-61" target="Y6A_3geRlV_-eWPfyYfj-80">
          <mxGeometry relative="1" as="geometry" />
        </mxCell>
        <mxCell id="Y6A_3geRlV_-eWPfyYfj-61" value="вывести значение &lt;b&gt;массив[i]&lt;br&gt;&lt;/b&gt;" style="rounded=1;whiteSpace=wrap;html=1;" vertex="1" parent="1">
          <mxGeometry x="145" y="1020" width="130" height="30" as="geometry" />
        </mxCell>
        <mxCell id="Y6A_3geRlV_-eWPfyYfj-101" style="edgeStyle=orthogonalEdgeStyle;rounded=0;orthogonalLoop=1;jettySize=auto;html=1;entryX=1;entryY=0.5;entryDx=0;entryDy=0;" edge="1" parent="1" source="Y6A_3geRlV_-eWPfyYfj-63" target="Y6A_3geRlV_-eWPfyYfj-99">
          <mxGeometry relative="1" as="geometry" />
        </mxCell>
        <mxCell id="Y6A_3geRlV_-eWPfyYfj-63" value="вывести символы&lt;b&gt; [ ]&lt;br&gt;&lt;/b&gt;" style="rounded=1;whiteSpace=wrap;html=1;" vertex="1" parent="1">
          <mxGeometry x="565" y="1070" width="130" height="20" as="geometry" />
        </mxCell>
        <mxCell id="Y6A_3geRlV_-eWPfyYfj-69" style="edgeStyle=orthogonalEdgeStyle;rounded=0;orthogonalLoop=1;jettySize=auto;html=1;entryX=0.479;entryY=-0.237;entryDx=0;entryDy=0;entryPerimeter=0;exitX=0;exitY=0.5;exitDx=0;exitDy=0;" edge="1" parent="1" source="Y6A_3geRlV_-eWPfyYfj-65">
          <mxGeometry relative="1" as="geometry">
            <mxPoint x="344.9953086419754" y="784.7523456790124" as="sourcePoint" />
            <mxPoint x="332.765" y="830" as="targetPoint" />
            <Array as="points">
              <mxPoint x="333" y="780" />
            </Array>
          </mxGeometry>
        </mxCell>
        <mxCell id="Y6A_3geRlV_-eWPfyYfj-81" style="edgeStyle=orthogonalEdgeStyle;rounded=0;orthogonalLoop=1;jettySize=auto;html=1;entryX=0.5;entryY=0;entryDx=0;entryDy=0;" edge="1" parent="1" source="Y6A_3geRlV_-eWPfyYfj-65" target="Y6A_3geRlV_-eWPfyYfj-63">
          <mxGeometry relative="1" as="geometry">
            <Array as="points">
              <mxPoint x="630" y="780" />
            </Array>
          </mxGeometry>
        </mxCell>
        <mxCell id="Y6A_3geRlV_-eWPfyYfj-65" value="&lt;div&gt;проверяем условие&lt;/div&gt;&lt;div&gt;&lt;b&gt;массив[0]=пустое значение&lt;/b&gt;&lt;/div&gt;&lt;div&gt;&lt;b&gt;&lt;br&gt;&lt;/b&gt;&lt;/div&gt;" style="rhombus;whiteSpace=wrap;html=1;" vertex="1" parent="1">
          <mxGeometry x="345" y="730" width="205" height="100" as="geometry" />
        </mxCell>
        <mxCell id="Y6A_3geRlV_-eWPfyYfj-67" style="edgeStyle=orthogonalEdgeStyle;rounded=0;orthogonalLoop=1;jettySize=auto;html=1;entryX=0.5;entryY=0;entryDx=0;entryDy=0;" edge="1" parent="1" source="Y6A_3geRlV_-eWPfyYfj-66" target="Y6A_3geRlV_-eWPfyYfj-56">
          <mxGeometry relative="1" as="geometry">
            <Array as="points">
              <mxPoint x="210" y="1140" />
              <mxPoint x="120" y="1140" />
              <mxPoint x="120" y="900" />
            </Array>
          </mxGeometry>
        </mxCell>
        <mxCell id="Y6A_3geRlV_-eWPfyYfj-66" value="&lt;b&gt;i=i+1&lt;/b&gt;" style="rounded=0;whiteSpace=wrap;html=1;" vertex="1" parent="1">
          <mxGeometry x="170" y="1110" width="67.5" height="20" as="geometry" />
        </mxCell>
        <mxCell id="Y6A_3geRlV_-eWPfyYfj-73" value="" style="endArrow=classic;html=1;rounded=0;exitX=0.5;exitY=1;exitDx=0;exitDy=0;entryX=0.5;entryY=0;entryDx=0;entryDy=0;" edge="1" parent="1" source="Y6A_3geRlV_-eWPfyYfj-60" target="Y6A_3geRlV_-eWPfyYfj-57">
          <mxGeometry width="50" height="50" relative="1" as="geometry">
            <mxPoint x="300" y="910" as="sourcePoint" />
            <mxPoint x="350" y="860" as="targetPoint" />
          </mxGeometry>
        </mxCell>
        <mxCell id="Y6A_3geRlV_-eWPfyYfj-78" value="Нет" style="text;html=1;strokeColor=none;fillColor=none;align=center;verticalAlign=middle;whiteSpace=wrap;rounded=0;" vertex="1" parent="1">
          <mxGeometry x="460" y="440" width="60" height="30" as="geometry" />
        </mxCell>
        <mxCell id="Y6A_3geRlV_-eWPfyYfj-79" value="Да" style="text;html=1;strokeColor=none;fillColor=none;align=center;verticalAlign=middle;whiteSpace=wrap;rounded=0;" vertex="1" parent="1">
          <mxGeometry x="190" y="910" width="60" height="30" as="geometry" />
        </mxCell>
        <mxCell id="Y6A_3geRlV_-eWPfyYfj-98" style="edgeStyle=orthogonalEdgeStyle;rounded=0;orthogonalLoop=1;jettySize=auto;html=1;entryX=0.593;entryY=0;entryDx=0;entryDy=0;entryPerimeter=0;" edge="1" parent="1" source="Y6A_3geRlV_-eWPfyYfj-80" target="Y6A_3geRlV_-eWPfyYfj-66">
          <mxGeometry relative="1" as="geometry" />
        </mxCell>
        <mxCell id="Y6A_3geRlV_-eWPfyYfj-80" value="вывести символы&lt;b&gt; &quot;,&lt;br&gt;&lt;/b&gt;" style="rounded=1;whiteSpace=wrap;html=1;" vertex="1" parent="1">
          <mxGeometry x="145" y="1070" width="130" height="20" as="geometry" />
        </mxCell>
        <mxCell id="Y6A_3geRlV_-eWPfyYfj-82" value="Да" style="text;html=1;strokeColor=none;fillColor=none;align=center;verticalAlign=middle;whiteSpace=wrap;rounded=0;" vertex="1" parent="1">
          <mxGeometry x="540" y="750" width="60" height="30" as="geometry" />
        </mxCell>
        <mxCell id="Y6A_3geRlV_-eWPfyYfj-83" value="" style="edgeStyle=orthogonalEdgeStyle;rounded=0;orthogonalLoop=1;jettySize=auto;html=1;entryX=0.5;entryY=0;entryDx=0;entryDy=0;" edge="1" source="Y6A_3geRlV_-eWPfyYfj-84" target="Y6A_3geRlV_-eWPfyYfj-85" parent="1">
          <mxGeometry relative="1" as="geometry" />
        </mxCell>
        <mxCell id="Y6A_3geRlV_-eWPfyYfj-84" value="вывести символ&lt;b&gt; &quot;&lt;br&gt;&lt;/b&gt;" style="rounded=1;whiteSpace=wrap;html=1;" vertex="1" parent="1">
          <mxGeometry x="397.5" y="980" width="110" height="20" as="geometry" />
        </mxCell>
        <mxCell id="Y6A_3geRlV_-eWPfyYfj-90" style="edgeStyle=orthogonalEdgeStyle;rounded=0;orthogonalLoop=1;jettySize=auto;html=1;entryX=0.5;entryY=0;entryDx=0;entryDy=0;" edge="1" parent="1" source="Y6A_3geRlV_-eWPfyYfj-85" target="Y6A_3geRlV_-eWPfyYfj-86">
          <mxGeometry relative="1" as="geometry" />
        </mxCell>
        <mxCell id="Y6A_3geRlV_-eWPfyYfj-85" value="вывести значение &lt;b&gt;массив[i]&lt;br&gt;&lt;/b&gt;" style="rounded=1;whiteSpace=wrap;html=1;" vertex="1" parent="1">
          <mxGeometry x="387.5" y="1020" width="130" height="30" as="geometry" />
        </mxCell>
        <mxCell id="Y6A_3geRlV_-eWPfyYfj-102" style="edgeStyle=orthogonalEdgeStyle;rounded=0;orthogonalLoop=1;jettySize=auto;html=1;entryX=0;entryY=0.5;entryDx=0;entryDy=0;" edge="1" parent="1" source="Y6A_3geRlV_-eWPfyYfj-86" target="Y6A_3geRlV_-eWPfyYfj-99">
          <mxGeometry relative="1" as="geometry" />
        </mxCell>
        <mxCell id="Y6A_3geRlV_-eWPfyYfj-86" value="вывести символы&lt;b&gt; &quot; ]&lt;br&gt;&lt;/b&gt;" style="rounded=1;whiteSpace=wrap;html=1;" vertex="1" parent="1">
          <mxGeometry x="387.5" y="1070" width="130" height="20" as="geometry" />
        </mxCell>
        <mxCell id="Y6A_3geRlV_-eWPfyYfj-87" style="edgeStyle=orthogonalEdgeStyle;rounded=0;orthogonalLoop=1;jettySize=auto;html=1;exitX=0.5;exitY=1;exitDx=0;exitDy=0;" edge="1" parent="1" source="Y6A_3geRlV_-eWPfyYfj-86" target="Y6A_3geRlV_-eWPfyYfj-86">
          <mxGeometry relative="1" as="geometry" />
        </mxCell>
        <mxCell id="Y6A_3geRlV_-eWPfyYfj-92" value="Нет" style="text;html=1;strokeColor=none;fillColor=none;align=center;verticalAlign=middle;whiteSpace=wrap;rounded=0;" vertex="1" parent="1">
          <mxGeometry x="420" y="910" width="60" height="30" as="geometry" />
        </mxCell>
        <mxCell id="Y6A_3geRlV_-eWPfyYfj-99" value="конец функции" style="ellipse;whiteSpace=wrap;html=1;" vertex="1" parent="1">
          <mxGeometry x="480" y="1110" width="120" height="40" as="geometry" />
        </mxCell>
      </root>
    </mxGraphModel>
  </diagram>
</mxfile>
